<svg xmlns="http://www.w3.org/2000/svg" viewBox="0 0 415 463"><g data-v-60abdccc="" fill-rule="evenodd"><path data-v-60abdccc="" fill-rule="nonzero" d="M391.5 64H335V45.77c10.908-3.675 17.549-14.71 15.688-26.07C348.826 8.34 339.01.002 327.5 0h-240C75.99.002 66.174 8.34 64.312 19.7 62.452 31.06 69.092 42.095 80 45.77V64H23.5C10.526 64.011.011 74.526 0 87.5v48C.053 192.057 45.45 238.121 102 239a128.22 128.22 0 0063.88 49 23.47 23.47 0 008.78 37.25A47.42 47.42 0 00176 395v4.47c.006 9.12-7.38 16.519-16.5 16.53-17.39.017-31.483 14.11-31.5 31.5v8a7.5 7.5 0 007.5 7.5h144a7.5 7.5 0 007.5-7.5v-8c-.017-17.39-14.11-31.483-31.5-31.5-9.108-.011-16.489-7.392-16.5-16.5V395a47.42 47.42 0 001.37-69.77 23.47 23.47 0 008.78-37.23A128.22 128.22 0 00313 239c56.547-.884 101.941-46.946 102-103.5v-48c-.011-12.974-10.526-23.489-23.5-23.5zm-304-49h240a8.5 8.5 0 010 17h-240a8.5 8.5 0 110-17zM15 135.5v-48a8.51 8.51 0 018.5-8.5H80v88.5a126.76 126.76 0 0012.91 55.86c-44.431-5.41-77.854-43.1-77.91-87.86zM255.5 431c9.108.011 16.489 7.392 16.5 16.5v.5H143v-.5c.011-9.108 7.392-16.489 16.5-16.5 17.39-.017 31.483-14.11 31.5-31.5v-.5h33v.5c.017 17.39 14.11 31.483 31.5 31.5zm-26.66-47h-42.68A32.2 32.2 0 01175 359.5c0-17.95 14.55-32.5 32.5-32.5s32.5 14.55 32.5 32.5a32.2 32.2 0 01-11.16 24.5zm2.66-89a8.5 8.5 0 010 17h-48a8.5 8.5 0 010-17h48zm-24-15c-62.102-.072-112.428-50.398-112.5-112.5V47h225v120.5c-.072 62.102-50.398 112.428-112.5 112.5zM400 135.5c-.056 44.76-33.479 82.45-77.91 87.86A126.76 126.76 0 00335 167.5V79h56.5a8.51 8.51 0 018.5 8.5v48z" fill='#fff'></path> <path data-v-60abdccc="" d="M295.5 112a7.5 7.5 0 00-7.5 7.5v48a80.3 80.3 0 01-29.28 62.05 7.5 7.5 0 009.56 11.56A95.25 95.25 0 00303 167.5v-48a7.5 7.5 0 00-7.5-7.5zm0-48a7.5 7.5 0 00-7.5 7.5v16a7.5 7.5 0 1015 0v-16a7.5 7.5 0 00-7.5-7.5z" fill='#fff'></path></g></svg>