<svg xmlns="http://www.w3.org/2000/svg" viewBox="-0.0009701477247290313 -0.00040435791015625 211.97671508789062 211.5738525390625"><g data-v-60abdccc="" fill-rule="evenodd"><path data-v-60abdccc="" fill-rule="nonzero" d="M105.89 211.53C51.45 213.06.26 167.6 0 106.09-.25 47.56 47.85-.16 106.49 0c58 .16 106.09 48.23 105.48 106.26-.62 63.03-52.8 106.89-106.08 105.27zm99.22-104.91c.66-54.77-43.45-99.53-98.55-100-54.51-.46-98.7 43.36-99.89 98-1.12 51 39.39 97.74 94 100.65 57.93 3.07 105.08-44.3 104.44-98.65z" fill='#ffff00'/><path data-v-60abdccc="" fill-rule="nonzero" d="M105.35 197.76c-50.45-.09-91.14-40.94-91.44-91.8-.29-50.26 41.76-92.19 92.34-92.08 50 .1 91.87 41.91 91.89 91.8.02 51.16-41.35 92.16-92.79 92.08zm.75-161a69.38 69.38 0 00-69.69 69.22c-.05 37.95 31.51 69.69 69.49 69.89 37.58.2 69.33-31.32 69.43-68.94.1-39.35-30.31-70.17-69.24-70.21l.01.04zM36.35 73.99l13.5-20.21-6.06-7.56-16 23.75 8.56 4.02zm67.38-44.52v-9.29l-27.38 4.78c1.67 4 2.76 6.59 3.7 8.82l23.68-4.31zM47.67 169.84l24 15.1 3.25-8.79-20.2-12.92c-2.16 2-4.02 3.73-7.05 6.61zm-27.78-60.1c1.92 9.33 3.67 17.84 5.61 27.29l8.78-3.92c-1.76-8.29-3.33-15.68-5-23.37h-9.39zm90.78 82.5l26.87-6.19c-1.66-3.72-2.82-6.31-3.8-8.52l-23.07 5v9.71zm67.3-112.83c1.62 8.34 3.05 15.72 4.51 23.27h9.35c-1.78-9.11-3.41-17.51-5.18-26.63l-8.68 3.36zm-39.28-42.73l20.05 13.6 6.49-6.87-22.81-15.38-3.73 8.65zM25.02 76.4c-1.69 8.91-3.26 17.2-5 26.19h9.33c1.52-7.85 2.95-15.2 4.42-22.75l-8.75-3.44zm25 81.9l-13-19.07-8.73 4.33 15.17 21 6.56-6.26zm28.55 29.2l25.12 4.42v-9.52c-5.4-.78-10.53-.65-14.94-2.36-6.96-2.69-9.31-.01-10.23 7.46h.05zm91.38-23.77l14.53-22.51-8.63-3.81-12.82 19.93 6.92 6.39zm-11.48-1.89l-18.73 12.83 4.25 8.67 20.84-14.83-6.36-6.67zM54.79 49.06l19.15-12.78-4-8.43L48.23 42.2l6.56 6.86zm129.2 20.44l-13.86-20.33-7.37 5.44 12.39 18.82 8.84-3.93zm-1.83 40.27c-.85 5.19-.89 10.19-2.56 14.58-2.78 7.31.91 8.8 7.81 9.6l4.19-24.18h-9.44zm-71.35-80.14l21.93 4.49c.93-2.7 1.8-5.19 3.06-8.86l-25-4.89.01 9.26z" fill='#ffff00'/><path data-v-60abdccc="" fill-rule="nonzero" d="M137.97 114.1c1.17-.37 3.06-1.13 5-1.58 6.43-1.48 11.21.81 13.61 6.93 2.16 5.51-.82 12.39-6.13 14.08-6 1.91-11.15.63-14.42-5.38-4-7.45-11.54-10.7-21.2-9.31-9.33 1.34-18 8-19.39 15.36-.32 1.73.68 3.83 1.45 5.6 3.06 7.08 1.06 13.4-5.26 16.17a11.23 11.23 0 01-14.4-5.19c-3-6 .11-11.44 6.38-15.91a21.88 21.88 0 008-12.54c1.85-9.84-5.46-21.53-15-25.41-2.36-1-5.76 0-8.5.73-5.78 1.57-11.66-1-14-6.45-2.287-5.78.48-12.325 6.22-14.71a11.09 11.09 0 0114.3 5.42c4.43 8.58 9 10.82 18.44 9.44 8.52-1.25 14.73-6.05 18.92-13.09 1.52-2.57 1.74-6.66 1-9.66-1.57-6.4.57-12.57 6.13-14.62a11.14 11.14 0 0114.87 7c2.13 6.16-1.12 13.09-7.88 14.12-5 .76-6.39 3.52-7.49 7.28-4.16 14.46 5.79 31.62 19.35 31.72zM91.61 99.38L99.29 117l18.17-5.44c-2.36-6.75-4.73-13.52-6.95-19.9l-18.9 7.72zM70.72 86.84c-2.63-2.09-4.53-4.59-5.68-4.28-1.94.52-3.41 2.82-5.08 4.37 1.7 1.47 3.23 3.69 5.17 4.13 1.22.26 3.01-2.22 5.59-4.22zm53.36-15.4c1.89-3.63 3.83-5.71 3.68-7.63-.11-1.4-3-3.63-4.61-3.55-1.61.08-4.1 2.82-4 4.14.26 1.96 2.47 3.71 4.93 7.03v.01zm21.93 45.33c-2.13 3.17-4.36 5.05-4.3 6.86.05 1.47 2.84 2.84 4.42 4.26 1.5-1.71 3.75-3.25 4.21-5.21.29-1.22-2.14-3.07-4.33-5.92v.01zm-52.25 28.69c-3.19-2-5.13-4.21-7-4.16-1.41 0-4.13 3.39-3.79 4.5a7.28 7.28 0 004.92 4.19c1.33.21 3.12-2.3 5.87-4.54v.01z" fill='#ffff00'/><path data-v-60abdccc="" d="M99.02 45.25l3.33 3c-1.32 1.27-2.57 3.56-4 3.66-10.71.76-19.51 5.19-27.16 12.54-1.08 1-3.45.71-5.22 1 .22-1.79-.22-4.18.77-5.27 8.25-9.11 18.79-13.74 32.28-14.93z" fill='#ffff00'/></g></svg>