<svg xmlns="http://www.w3.org/2000/svg" viewBox="0 0 37 36"><symbol xmlns="http://www.w3.org/2000/svg" viewBox="0 0 37 36" fill="none" id="unP9ugEoJ3fYqJJPSf8dM"><rect x="5" y="19.75" width="9" height="9" rx=".5" stroke="#fff"></rect><rect x="14" y="22.75" width="9" height="9" rx=".5" stroke="#fff"></rect><circle cx="7.5" cy="22.25" r=".5" stroke="#fff"></circle><circle cx="16.5" cy="25.25" r=".5" stroke="#fff"></circle><circle cx="20.5" cy="29.25" r=".5" stroke="#fff"></circle><circle cx="11.5" cy="22.25" r=".5" stroke="#fff"></circle><circle cx="7.5" cy="26.25" r=".5" stroke="#fff"></circle><circle cx="11.5" cy="26.25" r=".5" stroke="#fff"></circle><path d="m16.5 16.307-1.91-3.057 1.91-3.057 1.91 3.057-1.91 3.057Z" fill="#fff" stroke="#fff"></path><circle cx="25.5" cy="10.25" r="3.5" stroke="#fff"></circle><path d="M24 13.25c0 1.5 0 4-1.5 6-1.158 1.544-2.018 2.194-2.35 3.56M27 13.25c0 1.5 0 4 1.5 6s2.5 2.5 2.5 5v1.5m-22-6V5.25c0-1 .5-1.5 1.5-1.5h12c1 0 1.5.5 1.5 1.5v2m-1 18.5h8c1.5 0 1.5 0 1.5 1s0 1-1.5 1h-8" stroke="#fff"></path></symbol><use href="#unP9ugEoJ3fYqJJPSf8dM"></use></svg>