<svg xmlns="http://www.w3.org/2000/svg" viewBox="0 0 37 36"><symbol xmlns="http://www.w3.org/2000/svg" viewBox="0 0 37 36" fill="none" id="Cin8c2fJKsIkjku7Pr8Ab"><rect x=".5" y="17.75" width="33" height="14" rx="1.5" stroke="#fff"></rect><path d="M3.5 16.25a1.5 1.5 0 0 1 1.5-1.5h30a1.5 1.5 0 0 1 1.5 1.5v11a1.5 1.5 0 0 1-1.5 1.5h-1.5v-9c0-.33-.095-.814-.394-1.23-.318-.44-.843-.77-1.606-.77h-28v-1.5Zm16-10.5a5 5 0 0 1 5 5v4h-10v-4a5 5 0 0 1 5-5Z" stroke="#fff"></path><path d="M16.5 11.25c0-1.167.6-3.5 3-3.5m-7-4 1.5 1.5m-5 1.5 4 1.5m-4 3h3m14.5-7.5L25 5.25m5 1.5-4 1.5m4 3h-3m-19 12c0-.5-.3-1.5-1.5-1.5s-1.5 1-1.5 1.5.3 1.5 1.5 1.5 1.5 1 1.5 1.5-.3 1.5-1.5 1.5-1.5-1-1.5-1.5m1.5-4.5v-1.5m0 7.5v1.5m12.5-6c0-.5-.3-1.5-1.5-1.5s-1.5 1-1.5 1.5.3 1.5 1.5 1.5 1.5 1 1.5 1.5-.3 1.5-1.5 1.5-1.5-1-1.5-1.5m1.5-4.5v-1.5m0 7.5v1.5m12.5-6c0-.5-.3-1.5-1.5-1.5s-1.5 1-1.5 1.5.3 1.5 1.5 1.5 1.5 1 1.5 1.5-.3 1.5-1.5 1.5-1.5-1-1.5-1.5m1.5-4.5v-1.5m0 7.5v1.5" stroke="#fff" stroke-linecap="round"></path><path d="M23 17.75v14m-11-14v14" stroke="#fff"></path></symbol><use href="#Cin8c2fJKsIkjku7Pr8Ab"></use></svg>