<svg xmlns="http://www.w3.org/2000/svg" viewBox="0 0 37 36"><symbol xmlns="http://www.w3.org/2000/svg" viewBox="0 0 37 36" fill="none" id="aY_CfyhdtgODbBose1Jam"><path d="M12.5 10.625c-.5-.833-1-3 1-5 2.5-2.5 7.5-2.5 9.5 0 2.217 2.77 1.167 4.833 1 5.5" stroke="#fff"></path><path d="M12 12.125c0-1.5 2.833-3 4-3.5.667.333 2.8 1.1 4 1.5 1.5.5 3.5.5 3.5.5s1 1 1 2-1 1-2 2.5c-2 2.4-3.833 2.667-4.5 2.5-2.4 0-4-2-4.5-3s-1.5-1-1.5-2.5Z" stroke="#fff"></path><path d="M22.373 25.008c.498-2.242.663-4.463.755-6.046a22.3 22.3 0 0 1 2.534 1.221c1.199.679 2.287 1.474 2.845 2.273.264.38.521 1.006.758 1.817.233.801.435 1.74.604 2.715.296 1.698.491 3.477.593 4.762H19.155c1.733-1.776 2.679-4.308 3.218-6.742Zm-6.527 3.349c.512 1.293 1.165 2.5 2.005 3.393H6.568c.18-1.376.459-3.256.783-4.994.185-.996.385-1.938.588-2.71.208-.793.405-1.348.57-1.613.065-.105.197-.254.411-.44.209-.183.472-.382.775-.59a26.574 26.574 0 0 1 2.07-1.26 54.255 54.255 0 0 1 2.123-1.118 43.809 43.809 0 0 0 .671 4.783c.296 1.487.71 3.093 1.287 4.549Z" stroke="#fff" stroke-linecap="round" stroke-linejoin="round"></path><path d="M11 20.625c.333 2 .6 7-1 11M26.078 20.25c-.154 3.09-.184 9.318.922 11.5" stroke="#fff"></path><path d="M21 22.25v-3l-2.5 1.2-2.5-1.2v3l2.5-1.2 2.5 1.2Z" fill="#fff" stroke="#fff" stroke-linecap="round" stroke-linejoin="round"></path></symbol><use href="#aY_CfyhdtgODbBose1Jam"></use></svg>