<svg xmlns="http://www.w3.org/2000/svg" viewBox="0 0 37 36"><symbol xmlns="http://www.w3.org/2000/svg" viewBox="0 0 37 36" fill="none" id="eLs2l_2O4jYHvjclocvJY"><rect x="1.75" y="9.75" width="29" height="20" rx="3.5" stroke="#fff"></rect><path d="M4.25 15.25c0-2 1-3 3-3m21 12c0 2-1 3-3 3" stroke="#fff" stroke-linecap="round"></path><path d="M30.75 25.75h2c1 0 3-1 3-3.5v-13c0-3-2.5-3.5-3.5-3.5h-21.5c-2 0-4 1-4 4" stroke="#fff"></path><circle cx="16.75" cy="16.75" r="2" fill="#fff" stroke="#fff"></circle><circle cx="13.75" cy="19.75" r="2" fill="#fff" stroke="#fff"></circle><circle cx="19.75" cy="19.75" r="2" fill="#fff" stroke="#fff"></circle><path d="M16.25 19.25s1 5-2 5h5c-2.4 0-2.333-3.333-2-5h-1Z" fill="#fff" stroke="#fff" stroke-linecap="round" stroke-linejoin="round"></path></symbol><use href="#eLs2l_2O4jYHvjclocvJY"></use></svg>