<svg xmlns="http://www.w3.org/2000/svg" viewBox="0 0 37 36"><symbol xmlns="http://www.w3.org/2000/svg" viewBox="0 0 37 36" fill="none" id="1UYXnXpp1FWxXFm6RnC-D"><path d="M9.5 6v24" stroke="#fff" stroke-dasharray="4 2"></path><path d="M.5 9.5V13c1.333.167 4 1.3 4 4.5S1.833 21.833.5 22v4.5C.5 28.5 2 30 4 30h29c2 0 3.5-2 3.5-3.5v-17c0-1-.5-3.5-3.5-3.5H4C2.833 6 .5 6.7.5 9.5Z" stroke="#fff"></path><path d="M29.5 19a6 6 0 1 1-12 0 6 6 0 0 1 12 0Zm-1.756-6.5a4.502 4.502 0 0 0-8.488 0" stroke="#fff"></path><path d="M29 21.473a4.5 4.5 0 1 0-3.329-7.973m-4.342 0A4.5 4.5 0 1 0 18 21.473" stroke="#fff"></path><path d="M25 16.5h-2.5v2c1 0 2.5 0 2.5 1.5s-2 2-2.5 1" stroke="#fff" stroke-linecap="round" stroke-linejoin="round"></path></symbol><use href="#1UYXnXpp1FWxXFm6RnC-D"></use></svg>