<svg xmlns="http://www.w3.org/2000/svg" viewBox="0 0 37 36"><symbol xmlns="http://www.w3.org/2000/svg" viewBox="0 0 37 36" fill="none" id="fdZQJjR0xgHb6G5-a-XmN"><rect x=".5" y="7" width="30" height="25" rx="3.5" stroke="#fff"></rect><rect x="3.5" y="13" width="24" height="13" rx=".5" stroke="#fff"></rect><path d="M11.5 13v13m8-13v13" stroke="#fff"></path><circle cx="34.5" cy="6" r="2" stroke="#fff"></circle><path d="M34.5 8v10m.5 3h.001a1.5 1.5 0 0 0 0-3L35 21Zm0 0h-2.5m2.5 0h-2.5m0 0v-3h2.501L32.5 21Z" stroke="#fff"></path><path d="M5.5 18v-1h4c-.667.667-2 2.6-2 5m6-4v-1h4c-.667.667-2 2.6-2 5m6-4v-1h4c-.667.667-2 2.6-2 5" stroke="#fff" stroke-linecap="round" stroke-linejoin="round"></path><path d="M30.5 25c.667 0 2-.4 2-2v-7c0-1.5-1.5-2-2-2" stroke="#fff"></path></symbol><use href="#fdZQJjR0xgHb6G5-a-XmN"></use></svg>