<svg data-v-60abdccc="" xmlns="http://www.w3.org/2000/svg" width="44" height="29" viewBox="0 0 466 289" class="header-nav__icon svg-sprite-icon logo-small"><g data-v-60abdccc="" fill-rule="evenodd"><g data-v-60abdccc="" fill="none" stroke="#fff" stroke-width="5"><path data-v-60abdccc="" d="M316.598 132.428c-.165 14.14.884 31.088-.511 50.592-1.396 19.503-3.927 35.907-7.744 49.378-3.694 13.4-8.666 23.456-14.504 30.174-5.838 6.718-12.079 11.465-18.646 13.95-6.567 2.485-13.763 3.455-21.737 3.079-32.696-1.618-46.594-36.296-42.145-104.675 3.254-49.235 12.404-78.36 28.08-87.41 15.678-9.052 30.305-13.414 43.665-13.044 4.92.18 8.527.629 10.768 1.54 2.24.91 5.11 3.336 8.655 7.495 3.57 4.062 6.533 9.619 8.915 16.572 2.381 6.953 5.331 17.579 5.166 31.718l.038.631zm-70.907 42.082c-1.427 18.46-.86 35.28 1.53 50.31 2.392 15.032 5.892 23.216 10.503 24.555 4.29.218 9.001-7.32 14.108-22.515a182.884 182.884 0 009.177-46.613c1.018-15.775.605-31.621-1.238-47.54-1.939-15.946-6.22-23.926-12.957-24.282-10.904-.644-17.99 21.165-21.123 66.085zM214.22 91.434c-.118 12.806.791 27.957-.499 45.522-1.193 17.59-3.408 32.423-6.617 44.4-3.235 12.074-7.414 21.1-12.465 27.201-5.051 6.1-10.435 10.352-16.003 12.587-5.594 2.332-11.818 3.149-18.774 2.838-28.09-1.419-40.008-32.668-36.16-94.168 2.784-44.392 10.72-70.529 24.199-78.72 13.479-8.19 26.012-12.078 37.504-11.69 4.29.217 7.387.633 9.242 1.44 1.854.808 4.363 3.033 7.406 6.747 3.042 3.714 5.652 8.658 7.609 14.876 2.054 6.245 4.56 15.82 4.468 28.529l.09.438zm-60.99 37.906c-1.153 16.67-.752 31.789 1.325 45.286 2.052 13.594 5.083 20.826 9.088 22.106 3.685.159 7.751-6.516 12.18-20.341a173.107 173.107 0 007.935-41.977c.893-14.15.6-28.516-1.05-42.83-1.652-14.316-5.411-21.535-11.131-21.825-9.572-.598-15.58 19.119-18.346 59.581z"></path> <path data-v-60abdccc="" d="M112.482 101.754c3.531 20.823-6.08 52.826-28.735 96.035 8.233-.589 17.624.685 28.004 3.673 10.38 2.989 16.748 10.907 18.936 23.605 1.503 8.686-.207 16.613-4.673 24.009-4.467 7.396-12.707 14.195-24.458 20.57-11.847 6.351-24.265 10.581-37.183 12.814l-8.685 1.503-19.295 2.077c-.907-.864-4.242-18.943-10.37-54.025l-8.914-49.804c-5.912-33.574-10.196-65.884-13.63-96.724 5.152-4.934 12.63-9.66 22.864-13.854 10.234-4.194 19.932-6.772 29.112-7.418 33.608-2.176 52.538 10.247 57.13 37.153l-.103.386zm-53.428-9.243c-4.323.291-8.963 2.153-13.798 5.517l11.6 91.935c15.722-30.47 21.193-58.613 16.56-84.597-1.593-9.123-6.445-13.425-14.678-12.836l.316-.02zm32.447 138.932c-.863-4.89-3.293-8.958-7.502-12.57-4.208-3.613-9.205-5.055-15.325-4.624-2.113.158-4.497.555-6.888 1.364l7.35 43.276c1.797-.14 4.381-.896 7.752-2.27 3.344-1.279 6.039-2.834 8.109-4.764 2.044-1.834 3.812-4.57 5.156-8.04 1.344-3.47 1.633-7.637.865-12.502l.483.13zM366.012 8.288c7.143.775 12.03 3.016 14.634 6.82 2.63 3.706 3.597 8.21 2.979 13.221-.618 5.01-3.271 9.89-7.786 14.375-4.514 4.484-10.83 6.415-18.99 5.575-8.16-.841-13.923-2.903-17.359-6.308-3.435-3.405-4.751-7.381-4.333-12.032 1.733-16.514 12.042-23.69 31.17-21.67l-.315.019zm-13.49 210.687l-28.7 3.18 16.859-162.99 31.484 1.5-19.643 158.31zm34.833 24.552c-6.24-1.051-10.348-3.497-12.469-7.171-2.025-3.649-2.535-7.927-1.582-12.64.926-4.618 3.573-9.086 7.887-13.21 4.314-4.123 10.088-5.579 17.224-4.391 7.135 1.187 12.093 3.55 14.73 6.845 2.637 3.295 3.592 7.071 2.84 11.425-2.492 15.482-12.227 21.674-28.965 18.845l.335.297zM419.45 25.608l33.39 2.115L413.49 193.9l-24.937-4.3L419.45 25.608z"></path></g> <g data-v-60abdccc="" fill="currentColor" fill-rule="nonzero"><path data-v-60abdccc="" d="M330.47 123.93c-.164 14.138.885 31.087-.51 50.59-1.396 19.504-3.928 35.908-7.745 49.379-3.694 13.4-8.666 23.456-14.504 30.174-5.837 6.718-12.078 11.465-18.645 13.95-6.567 2.485-13.764 3.455-21.738 3.078-32.695-1.617-46.593-36.296-42.144-104.674 3.254-49.235 12.404-78.36 28.08-87.41 15.677-9.052 30.305-13.414 43.664-13.044 4.921.18 8.528.628 10.768 1.54 2.241.91 5.111 3.336 8.655 7.495 3.57 4.062 6.533 9.618 8.915 16.572 2.381 6.953 5.332 17.579 5.167 31.718l.038.631zm-71.004 42.055c-1.426 18.46-.86 35.28 1.531 50.31 2.391 15.031 5.892 23.216 10.503 24.555 4.29.218 9.001-7.32 14.108-22.515a182.884 182.884 0 009.177-46.613c1.017-15.775.605-31.621-1.238-47.54-1.939-15.946-6.22-23.926-12.957-24.282-10.879-.74-17.99 21.165-21.124 66.085zM226.14 83.654c-.119 12.806.79 27.957-.5 45.522-1.193 17.59-3.407 32.423-6.616 44.4-3.236 12.074-7.414 21.1-12.465 27.2-5.051 6.101-10.435 10.353-16.003 12.588-5.568 2.235-11.818 3.149-18.774 2.838-28.09-1.419-40.008-32.668-36.16-94.168 2.784-44.392 10.72-70.529 24.198-78.72 13.48-8.19 26.013-12.078 37.504-11.69 4.29.217 7.388.633 9.242 1.44 1.855.808 4.364 3.033 7.407 6.747 3.042 3.714 5.651 8.658 7.609 14.876 2.053 6.245 4.56 15.82 4.468 28.529l.09.438zm-61.112 37.977c-1.154 16.67-.753 31.788 1.324 45.286 2.052 13.594 5.084 20.825 9.089 22.105 3.684.16 7.75-6.516 12.18-20.34a173.107 173.107 0 007.934-41.977c.893-14.151.601-28.516-1.05-42.831-1.651-14.315-5.411-21.534-11.13-21.825-9.476-.571-15.58 19.12-18.347 59.582z" fill='#fff'></path> <path data-v-60abdccc="" d="M127.8 85.153c3.532 20.823-6.079 52.827-28.734 96.035 8.233-.589 17.623.685 28.004 3.673 10.476 3.015 16.747 10.907 18.935 23.606 1.504 8.685-.206 16.612-4.673 24.008-4.466 7.396-12.707 14.195-24.457 20.571-11.848 6.35-24.265 10.58-37.184 12.813l-8.685 1.503-19.295 2.077c-.907-.864-4.241-18.943-10.37-54.025l-8.914-49.804c-5.912-33.574-10.195-65.884-13.63-96.724 5.152-4.934 12.63-9.66 22.865-13.854 10.234-4.194 19.931-6.772 29.111-7.418 33.609-2.175 52.539 10.247 57.131 37.153l-.103.386zM74.374 75.91c-4.323.291-8.963 2.154-13.798 5.517l11.6 91.935c15.722-30.47 21.192-58.612 16.56-84.597-1.593-9.123-6.445-13.425-14.678-12.836l.316-.02zm32.447 138.932c-.864-4.89-3.294-8.958-7.502-12.57-4.209-3.612-9.206-5.055-15.326-4.624-2.113.158-4.497.555-6.887 1.364l7.35 43.276c1.797-.14 4.38-.896 7.751-2.27 3.345-1.278 6.04-2.834 8.11-4.764 2.044-1.834 3.812-4.57 5.156-8.04 1.344-3.47 1.632-7.637.865-12.502l.483.13zM379.934 1.148c7.143.775 12.03 3.016 14.634 6.82 2.63 3.706 3.597 8.21 2.98 13.221-.619 5.01-3.272 9.89-7.786 14.375-4.515 4.484-10.83 6.416-18.99 5.575-8.16-.84-13.924-2.903-17.36-6.308-3.435-3.405-4.75-7.381-4.333-12.032C350.812 6.285 361.121-.89 380.25 1.13l-.316.019zm-13.586 210.661l-28.7 3.18L354.506 52l31.484 1.5-19.643 158.31zm33.962 25.871c-6.241-1.05-10.348-3.497-12.47-7.17-2.024-3.65-2.534-7.927-1.582-12.641.927-4.618 3.573-9.085 7.888-13.209 4.314-4.124 10.087-5.579 17.223-4.392 7.136 1.188 12.093 3.551 14.73 6.846 2.637 3.295 3.593 7.07 2.84 11.424-2.492 15.483-12.226 21.675-28.964 18.846l.334.297zm32.094-217.918l33.391 2.114-39.35 166.178-24.937-4.3 30.896-163.992z" fill='#fff'></path></g></g></svg>