<?xml version="1.0" encoding="utf-8"?><svg width="184" height="151" viewBox="0 0 184 151" xmlns="http://www.w3.org/2000/svg" xmlns:xlink="http://www.w3.org/1999/xlink"><view id="icon-footer__astropay" viewBox="87 30 86 23"/><svg width="86" height="23" viewBox="0 0 86 23" x="87" y="30" xmlns="http://www.w3.org/2000/svg"><g fill="none"><path fill="#FFF" d="M5.767.658.043 17.43h3.363l1.617-4.894h4.65l1.66 4.894h3.434L9.044.659H5.767zM8.872 9.76H5.867l1.245-3.692c.086-.257.172-.5.243-.758.086.257.157.515.258.773L8.872 9.76zm11.562.043c-1.545-.615-1.717-.902-1.717-1.345 0-.558.472-.916 1.23-.916.916 0 1.617.358 1.96.572l.66.415.872-2.661-.386-.258c-.759-.5-1.904-.787-3.063-.787-2.59 0-4.464 1.632-4.464 3.892 0 2.075 1.831 3.177 3.377 3.735 1.53.573 1.66.973 1.66 1.46 0 .916-.973 1.059-1.531 1.059-.888 0-1.846-.387-2.39-.701l-.658-.387-.859 2.719.415.243c.945.558 2.19.873 3.449.873 2.847 0 4.765-1.603 4.765-3.978 0-2.418-1.903-3.406-3.32-3.935zm8.371-7.641-3.205.973V5.05h-1.717v2.762h1.731v5.48c0 1.532.315 2.62.944 3.349.616.687 1.56 1.059 2.633 1.059.973 0 1.675-.2 2.004-.315l.429-.157-.172-2.776-.73.229c-.228.057-.472.114-1.001.114-.387 0-.916 0-.916-1.56V7.813h2.905V5.051h-2.89l-.015-2.89zm10.703 2.776-.586-.072a3.335 3.335 0 0 0-.573-.043c-1.016 0-1.946.415-2.661 1.145l-.029-.916h-3.005l.043.644c.057.945.1 2.046.1 3.449v8.3h3.249v-6.569c0-.315.028-.615.057-.844.243-1.288 1.044-2.09 2.118-2.09.257 0 .415 0 .558.03l.73.157V4.937zm5.925-.115c-3.62 0-6.153 2.676-6.153 6.525 0 3.735 2.446 6.354 5.952 6.354 2.977 0 6.168-2.046 6.168-6.54.028-3.734-2.433-6.339-5.967-6.339zm2.704 6.397c0 2.16-1.173 3.734-2.776 3.734-1.603 0-2.762-1.56-2.762-3.677 0-1.374.601-3.706 2.82-3.706 2.146-.015 2.718 2.375 2.718 3.649zm13.938-9.23C61 1.03 59.399.544 57.309.544c-1.402 0-2.733.1-3.949.315l-.5.085v16.5h3.219v-6.14c.329.03.672.043 1.002.043 2.175 0 4.02-.672 5.194-1.888.916-.93 1.374-2.19 1.374-3.75-.015-1.502-.558-2.818-1.574-3.72zm-1.66 3.82c0 2.347-2.06 2.69-3.292 2.69-.415 0-.758-.013-1.058-.056V3.406c.314-.043.744-.058 1.287-.058 1.403.015 3.063.444 3.063 2.462zm13.107 8.343V9.974c0-3.334-1.731-5.152-4.85-5.152-1.446 0-2.963.401-4.022 1.06l-.4.257.872 2.575.673-.457c.673-.458 1.646-.73 2.604-.73.644-.015 1.13.143 1.446.458.257.257.415.644.472 1.13-2.533.072-4.393.687-5.51 1.803-.786.773-1.187 1.775-1.187 2.962 0 1.89 1.374 3.82 4.02 3.82 1.131 0 2.19-.357 3.02-1l.086.729h3.077l-.1-.701c-.158-.673-.2-1.546-.2-2.576zm-5.409.83c-.486 0-1.288-.172-1.288-1.33 0-.444.13-.788.415-1.074.387-.372 1.217-.801 3.105-.844v1.33c0 .1-.014.272-.057.458-.243.673-.944 1.46-2.175 1.46zm14.338-9.93-2.347 6.968c-.057.172-.114.358-.171.53a5.175 5.175 0 0 0-.186-.501l-2.562-7h-3.548l4.436 11.119.014.028c.071.143.1.23.1.258-.029.057-.072.172-.1.243-.387.83-.959 1.589-1.531 2.046l-.015.015c-.643.543-1.316.801-1.574.873l-.572.186.83 2.776.53-.1c.329-.058 1.473-.33 2.79-1.431 1.574-1.388 2.618-3.62 3.992-7.241L85.9 5.037l-3.449.014z"/><path fill="red" d="M11.905 5.28c2.09-2.132 5.638-3.405 9.488-3.405 1.502 0 2.962.186 4.335.572l.115.029 2.475-.745-1.116-.415C25.1.516 22.666.086 20.176.086c-3.62 0-6.983.873-9.515 2.461l-.272.172 1.044 3.048.472-.487z"/></g></svg><view id="icon-footer__interac" viewBox="0 95 56 56"/><svg width="56" height="56" viewBox="0 0 56 56" y="95" xmlns="http://www.w3.org/2000/svg"><defs><path id="ba" d="M0 0h55.999v56H0z"/></defs><g fill="none" fill-rule="evenodd"><mask id="bb" fill="#fff"><use xlink:href="#ba"/></mask><g mask="url(#bb)" fill-rule="nonzero"><path d="M5.461.954h45.076a4.508 4.508 0 0 1 4.508 4.508v45.076a4.508 4.508 0 0 1-4.508 4.508H5.461a4.507 4.507 0 0 1-4.507-4.507V5.462A4.508 4.508 0 0 1 5.46.954Z" fill="#FDB913"/><path d="M50.538.954a4.508 4.508 0 0 1 4.507 4.508v45.076a4.508 4.508 0 0 1-4.507 4.508H5.462a4.508 4.508 0 0 1-4.508-4.508V5.462A4.508 4.508 0 0 1 5.462.954h45.076m0-.954H5.462A5.468 5.468 0 0 0 0 5.462v45.076A5.468 5.468 0 0 0 5.462 56h45.076a5.467 5.467 0 0 0 5.461-5.462V5.462A5.467 5.467 0 0 0 50.538 0" fill="#FFF"/><path d="m31.156 28.584-.005-9.685 2.528-.6v1.27s.655-1.67 2.175-2.057c.227-.073.468-.09.703-.047v2.47a3.57 3.57 0 0 0-1.325.276c-.934.37-1.404 1.174-1.404 2.403l.002 5.348-2.674.622ZM17.83 31.733s-.411-.616-.411-2.795v-4.822l-1.301.31v-1.987l1.304-.308v-2.166l2.688-.635v2.166l1.899-.451v1.984l-1.9.45s-.002 3.952 0 4.911c0 2.233.593 2.661.593 2.661l-2.872.682Zm4.46-5.761c0-1.722.245-2.978.771-3.942.627-1.144 1.654-1.89 3.15-2.23 2.949-.67 4.013 1.075 3.972 3.415-.016.837-.012 1.245-.012 1.245l-5.195 1.221v.084c0 1.635.343 2.411 1.379 2.192.895-.19 1.144-.75 1.215-1.444.011-.111.017-.396.017-.396l2.434-.583s.005.2.002.423c-.021.93-.292 3.234-3.674 4.034-3.205.76-4.06-1.196-4.06-4.02m4.03-4.367c-.861.195-1.313 1.04-1.332 2.439l2.613-.623a8.04 8.04 0 0 0 .005-.42c-.005-1.057-.331-1.615-1.286-1.396m19.336-1.296c-.1-2.95.664-5.29 3.955-6.036 2.097-.476 2.894.07 3.297.597.388.503.538 1.182.538 2.132l.002.175-2.574.611-.002-.358c.002-1.127-.312-1.556-1.13-1.35-.974.244-1.367 1.168-1.367 3.005 0 .653.002.77.002.858 0 1.867.256 2.722 1.378 2.487.973-.201 1.106-1.056 1.122-1.806l.007-.494 2.57-.607s.003.19.003.401c-.006 2.449-1.297 3.992-3.715 4.554-3.33.781-3.983-1.144-4.086-4.169m-8.9 4.13c0-2.244 1.314-2.953 3.292-3.772 1.78-.736 1.818-1.101 1.825-1.74.01-.539-.24-1-1.125-.773a1.337 1.337 0 0 0-1.072 1.267c-.015.165-.02.331-.017.497l-2.494.589a4.962 4.962 0 0 1 .172-1.474c.399-1.341 1.582-2.244 3.625-2.717 2.653-.611 3.538.553 3.541 2.365v4.29c0 2.074.385 2.378.385 2.378l-2.449.58a5.321 5.321 0 0 1-.328-.88s-.536 1.35-2.385 1.785c-1.942.458-2.97-.746-2.97-2.395m5.1-3.064c-.413.29-.848.545-1.303.763-.816.399-1.185.89-1.185 1.648 0 .657.407 1.087 1.146.905.792-.2 1.342-.94 1.342-1.967v-1.349ZM3.775 38.522a1.554 1.554 0 0 1-1.302-2.4l.017-.022.03-.008 3.656-.863v2.777l-.057.013c-.83.2-1.821.427-2.025.47a1.53 1.53 0 0 1-.319.033m0 3.552a1.552 1.552 0 0 1-1.302-2.394l.017-.026.03-.008 3.656-.863v2.777l-.057.015c-.83.199-1.821.428-2.025.47-.105.02-.212.03-.319.03m0 3.558a1.553 1.553 0 0 1-1.302-2.396l.017-.028 3.686-.868v2.776l-.057.015c-.876.21-1.849.43-2.025.47a1.62 1.62 0 0 1-.319.031M3.344 35.12l-.001-15.536 2.832-.67V34.45zm7.055-1.322a1.748 1.748 0 1 0-3.495 0l.003 14.52a4.738 4.738 0 0 0 4.729 4.733c1.322 0 4.946-.007 4.946-.007l.002-6.057.002-6.756c0-.765-.38-1.48-1.017-1.904l-4.409-2.995v6.8a.376.376 0 0 1-.753 0l-.008-8.334m2.361-10.834a3.821 3.821 0 0 0-2.522 1.95V23.82l-2.55.604.002 6.973a2.61 2.61 0 0 1 2.686.47v-4.503c0-1.078.537-1.94 1.303-2.109.577-.126 1.059.08 1.059 1.107l.002 6.569 2.686-.63v-6.949c0-1.684-.649-2.862-2.667-2.389M51.79 13.02a1.66 1.66 0 1 1-.003-3.32 1.66 1.66 0 0 1 .003 3.32m0-3.111a1.452 1.452 0 1 0 0 2.904 1.452 1.452 0 0 0 0-2.904" fill="#231F20"/><path d="M51.186 10.372h.715a.468.468 0 0 1 .515.52c0 .263-.117.465-.338.5v.004c.201.02.307.131.317.416.004.129.006.288.012.412 0 .07.036.137.096.175h-.366a.338.338 0 0 1-.054-.18c-.012-.12-.009-.235-.014-.382-.006-.222-.073-.318-.295-.318h-.265v.88h-.323v-2.027Zm.582.902a.298.298 0 0 0 .323-.328c0-.216-.093-.33-.306-.33h-.276v.658h.259Z" fill="#231F20"/></g></g></svg><view id="icon-footer__maestro" viewBox="57 60 45 35"/><svg width="45" height="35" viewBox="0 0 45 35" x="57" y="60" xmlns="http://www.w3.org/2000/svg"><g fill="none"><path fill="#7673C0" d="M16.4 3.012h12.115v21.773H16.4z"/><path fill="#EB001B" d="M17.17 13.9a13.823 13.823 0 0 1 5.288-10.888C16.78-1.45 8.628-.8 3.73 4.504c-4.899 5.305-4.899 13.483 0 18.788 4.898 5.304 13.05 5.954 18.728 1.493A13.823 13.823 0 0 1 17.169 13.9z"/><path fill="#00A1DF" d="M44.858 13.9a13.846 13.846 0 0 1-22.4 10.885 13.846 13.846 0 0 0 0-21.773 13.846 13.846 0 0 1 22.404 10.884l-.004.004z"/><path fill="#000" d="M13.612 34.708V32.4a1.365 1.365 0 0 0-1.443-1.458 1.423 1.423 0 0 0-1.292.654 1.35 1.35 0 0 0-1.215-.654c-.43-.021-.84.186-1.077.546v-.453h-.8v3.673h.807v-2.035a.858.858 0 0 1 .9-.977c.531 0 .8.346.8.97v2.042h.808v-2.035a.865.865 0 0 1 .9-.977c.546 0 .808.346.808.97v2.042h.804zm4.5-1.835v-1.835h-.808v.447a1.392 1.392 0 0 0-1.154-.539 1.923 1.923 0 0 0 0 3.846 1.39 1.39 0 0 0 1.154-.538v.446h.8l.008-1.827zm-2.974 0a1.112 1.112 0 1 1 1.116 1.177 1.1 1.1 0 0 1-1.123-1.177h.007zm20.066-1.923c.263 0 .524.049.77.146.233.094.446.232.626.408.178.174.32.382.415.611a2.04 2.04 0 0 1 0 1.539 1.85 1.85 0 0 1-.415.611c-.18.176-.393.315-.627.408a2.177 2.177 0 0 1-1.577 0 1.877 1.877 0 0 1-1.035-1.02c-.2-.492-.2-1.044 0-1.538a1.877 1.877 0 0 1 1.035-1.019 2.07 2.07 0 0 1 .8-.158l.008.012zm0 .77a1.192 1.192 0 0 0-.458.084 1.08 1.08 0 0 0-.365.242c-.106.11-.189.241-.243.385a1.335 1.335 0 0 0 0 .954 1.077 1.077 0 0 0 .608.627c.293.114.619.114.912 0a1.1 1.1 0 0 0 .384-.243c.107-.11.19-.24.243-.384a1.335 1.335 0 0 0 0-.954 1.115 1.115 0 0 0-.243-.385 1.1 1.1 0 0 0-.384-.242 1.192 1.192 0 0 0-.462-.108l.008.023zm-12.746 1.153c0-1.154-.716-1.923-1.743-1.923a1.923 1.923 0 1 0 .054 3.846 2.23 2.23 0 0 0 1.504-.515l-.385-.593a1.75 1.75 0 0 1-1.069.385 1.02 1.02 0 0 1-1.1-.9h2.727c.012-.096.012-.192.012-.3zm-2.735-.323c.03-.507.457-.9.965-.888a.912.912 0 0 1 .931.892l-1.896-.004zm6.1-.577a2.365 2.365 0 0 0-1.154-.315c-.438 0-.7.161-.7.43 0 .27.277.316.623.362l.385.054c.8.115 1.285.454 1.285 1.1 0 .646-.616 1.2-1.674 1.2A2.65 2.65 0 0 1 23 34.327l.385-.623c.353.262.783.397 1.223.384.546 0 .838-.161.838-.446 0-.207-.208-.323-.646-.384l-.385-.054c-.823-.116-1.269-.485-1.269-1.085 0-.73.6-1.177 1.539-1.177a2.746 2.746 0 0 1 1.496.385l-.358.646zm3.846-.208h-1.304v1.658c0 .385.131.615.531.615.25-.008.493-.08.708-.207l.23.684a1.87 1.87 0 0 1-1 .285c-.946 0-1.276-.508-1.276-1.362v-1.673h-.746v-.73h.746v-1.116h.807v1.116h1.304v.73zm2.766-.823c.194.001.386.035.569.1l-.246.77a1.3 1.3 0 0 0-.5-.093c-.523 0-.77.339-.77.946v2.058h-.8V31.05h.793v.446c.2-.343.572-.55.969-.538l-.015-.016zm5.53 3.231a.385.385 0 0 1 .266.104.358.358 0 0 1-.12.592.362.362 0 0 1-.146.031.385.385 0 0 1-.346-.223.362.362 0 0 1 .081-.4.385.385 0 0 1 .246-.104h.02zm0 .65a.285.285 0 1 0-.204-.485c-.1.11-.1.276 0 .385a.285.285 0 0 0 .204.085v.015zm.023-.458a.154.154 0 0 1 .1.031c.024.02.037.05.035.08a.092.092 0 0 1-.027.07.135.135 0 0 1-.08.035l.11.127h-.088l-.103-.127H37.9v.127h-.073v-.354l.161.011zm-.084.066v.092h.084a.08.08 0 0 0 .047 0 .038.038 0 0 0 0-.035.038.038 0 0 0 0-.034.08.08 0 0 0-.047 0l-.084-.023z"/><path fill="#00A1DF" d="M43.538 22.477v-.431h.181v-.092h-.457v.092h.18v.446zm.889 0v-.539h-.139l-.161.385-.162-.385h-.142v.539h.1v-.404l.15.35h.104l.15-.35v.408l.1-.004z"/></g></svg><view id="icon-footer__mastercard" viewBox="102 60 45 35"/><svg width="45" height="35" viewBox="0 0 45 35" x="102" y="60" xmlns="http://www.w3.org/2000/svg"><g fill="none"><path fill="#231F20" d="M8.152 34.657V32.35a1.37 1.37 0 0 0-1.446-1.462 1.423 1.423 0 0 0-1.293.654 1.35 1.35 0 0 0-1.215-.654c-.43-.022-.84.186-1.077.546v-.453h-.8v3.676h.808v-2.023a.862.862 0 0 1 .9-.977c.53 0 .8.347.8.97v2.046h.808v-2.039a.865.865 0 0 1 .9-.977c.546 0 .807.347.807.97v2.046l.808-.016zm11.95-3.676h-1.315v-1.116h-.808v1.116h-.73v.73h.745v1.693c0 .853.331 1.361 1.277 1.361.354.001.7-.097 1-.284l-.23-.685c-.215.128-.459.2-.708.208-.385 0-.531-.247-.531-.616v-1.677h1.308l-.008-.73zm6.823-.093a1.085 1.085 0 0 0-.97.539v-.446h-.792v3.676h.8v-2.061c0-.608.262-.946.77-.946.17-.003.34.029.5.092l.246-.77a1.712 1.712 0 0 0-.57-.1l.016.016zm-10.315.385a2.75 2.75 0 0 0-1.5-.385c-.931 0-1.539.446-1.539 1.177 0 .6.446.97 1.27 1.085l.384.054c.438.061.646.177.646.384 0 .285-.292.446-.838.446-.44.013-.87-.122-1.223-.384l-.385.623a2.654 2.654 0 0 0 1.592.477c1.062 0 1.677-.5 1.677-1.2s-.484-.985-1.284-1.1l-.385-.054c-.346-.046-.623-.115-.623-.362 0-.246.261-.43.7-.43a2.37 2.37 0 0 1 1.154.315l.354-.646zm21.427-.385a1.085 1.085 0 0 0-.97.539v-.446h-.792v3.676h.8v-2.061c0-.608.262-.946.77-.946.17-.003.34.029.5.092l.245-.77a1.712 1.712 0 0 0-.569-.1l.016.016zm-10.308 1.923a1.858 1.858 0 0 0 1.961 1.923c.48.025.953-.132 1.323-.438l-.384-.646c-.277.21-.614.327-.962.33a1.18 1.18 0 0 1 0-2.353c.348.004.685.12.962.33l.384-.646a1.923 1.923 0 0 0-1.323-.438 1.858 1.858 0 0 0-1.961 1.923v.015zm7.492 0v-1.83h-.8v.446a1.396 1.396 0 0 0-1.154-.539 1.923 1.923 0 1 0 0 3.846c.45.017.879-.183 1.154-.538v.446h.8v-1.83zm-2.977 0a1.112 1.112 0 1 1 1.116 1.177 1.104 1.104 0 0 1-1.116-1.177zm-9.654-1.923a1.923 1.923 0 1 0 .054 3.846 2.235 2.235 0 0 0 1.527-.5l-.384-.592a1.75 1.75 0 0 1-1.07.385 1.02 1.02 0 0 1-1.1-.9h2.731v-.308c0-1.154-.715-1.923-1.746-1.923l-.012-.008zm0 .716a.912.912 0 0 1 .931.892h-1.923a.946.946 0 0 1 .977-.892h.015zm20.043 1.215v-3.315h-.77v1.923a1.396 1.396 0 0 0-1.153-.539 1.923 1.923 0 1 0 0 3.846c.448.017.878-.183 1.153-.538v.446h.77V32.82zm1.334 1.304a.385.385 0 0 1 .266.104.358.358 0 0 1-.12.592.362.362 0 0 1-.146.03.385.385 0 0 1-.346-.222.362.362 0 0 1 .08-.4.385.385 0 0 1 .278-.104h-.012zm0 .65c.076 0 .148-.03.2-.085.1-.109.1-.276 0-.384a.277.277 0 0 0-.311-.062.28.28 0 0 0-.093.062c-.1.108-.1.275 0 .384a.285.285 0 0 0 .093.062.28.28 0 0 0 .123.023h-.012zm.023-.458a.154.154 0 0 1 .1.03c.024.02.037.05.035.082a.092.092 0 0 1-.027.069.135.135 0 0 1-.08.035l.11.126h-.088l-.103-.126h-.035v.126h-.073v-.338l.161-.004zm-.084.066v.092h.084a.08.08 0 0 0 .047 0 .038.038 0 0 0 0-.035.038.038 0 0 0 0-.034.08.08 0 0 0-.047 0l-.084-.023zm-4.231-1.562a1.112 1.112 0 1 1 1.115 1.177 1.104 1.104 0 0 1-1.115-1.177zm-27.012 0v-1.838h-.8v.446a1.396 1.396 0 0 0-1.153-.539 1.923 1.923 0 1 0 0 3.846c.448.017.878-.183 1.153-.538v.446h.8V32.82zm-2.976 0a1.112 1.112 0 1 1 1.115 1.177 1.104 1.104 0 0 1-1.123-1.177h.008z"/><path fill="#FF5F00" d="M16.344 2.961H28.46v21.773H16.344z"/><path fill="#EB001B" d="M17.113 13.85a13.823 13.823 0 0 1 5.289-10.89C16.725-1.5 8.572-.85 3.674 4.454c-4.899 5.305-4.899 13.483 0 18.788 4.899 5.304 13.051 5.954 18.728 1.492a13.823 13.823 0 0 1-5.289-10.884z"/><path fill="#F79E1B" d="M44.806 13.85a13.846 13.846 0 0 1-22.404 10.884 13.846 13.846 0 0 0 0-21.773 13.846 13.846 0 0 1 22.404 10.885v.004zm-.896 8.038.162.828.162-.828h.138v1.159l-.08.008v-.877l-.15.753h-.105l-.15-.753v.869h-.1v-1.159h.123zm-.246 0v.199h-.181v.96h-.08v-.96h-.197v-.199h.458z"/></g></svg><view id="icon-footer__neteller" viewBox="0 0 184 30"/><svg width="184" height="30" viewBox="0 0 184 30" xmlns="http://www.w3.org/2000/svg"><g fill="#83BA3B"><path d="M170.067 2.275C167.846.764 164.51 0 160.136 0H148.67l-4.265 23.15h-15.027l.967-5.253h9.052L140.472 12h-9.046l.967-5.23h9.325L142.954 0h-18.932l-4.05 21.958h-6.945L117.103 0h-9.898l-4.044 21.958H96.39L100.47 0h-9.89l-4.272 23.15H71.172l.958-5.253h9.086l1.076-5.864h-9.077l.951-5.25h9.446L84.832 0H25.834l-3.351 18.333L15.795 0H5.517L0 29.936h9.806l3.333-18.847 6.491 18.847h35.156l4.272-23.153h5.498l-4.277 23.153h92.47l2.682-14.616 4.339 14.616h9.81l-4.494-11.945 1.025-.214c2.264-.482 4.031-1.527 5.261-3.088 1.23-1.561 1.853-3.611 1.853-6.036.009-2.839-1.025-4.923-3.158-6.377v-.001zM46.25 23.15h-15l.97-5.253h9.416l1.07-5.917h-9.34l.9-5.197h15L46.25 23.15zm115.728-10.095c-.986.69-2.417 1.025-4.372 1.025h-1.945l1.486-8.033h1.428c1.625 0 2.809.262 3.626.795.638.414 1.388 1.238 1.388 2.8.022 1.892-.866 2.902-1.611 3.413zm15.68 14.948-.241-4.723 2.086-.108c.323-.029.649-.002.963.078.23.073.425.222.557.423.141.205.222.449.233.699a1.2 1.2 0 0 1-.278.861c-.26.275-.604.45-.978.5.138.053.267.125.386.214.21.176.397.378.556.603l.88 1.239-.777.042-.673-.95a7.802 7.802 0 0 0-.483-.626 1.447 1.447 0 0 0-.33-.3.967.967 0 0 0-.292-.111 2.223 2.223 0 0 0-.378-.01l-.722.035.108 2.092-.617.042zm.489-2.662 1.339-.068a2.01 2.01 0 0 0 .661-.123.686.686 0 0 0 .35-.303.77.77 0 0 0 .106-.428.697.697 0 0 0-.278-.536 1.11 1.11 0 0 0-.775-.178l-1.486.076.083 1.56z"/><path d="M179.04 21.141a4.4 4.4 0 1 0 .455 8.79 4.4 4.4 0 0 0-.456-8.79zm-3.423 4.581a3.653 3.653 0 1 1 7.294-.372v.186a3.653 3.653 0 0 1-7.3.186h.006z"/></g></svg><view id="icon-footer__skrill" viewBox="0 30 87 30"/><svg width="87" height="30" viewBox="0 0 87 30" y="30" xmlns="http://www.w3.org/2000/svg"><defs><linearGradient id="fa" x1="27.044%" x2="79.263%" y1="0%" y2="100%"><stop offset="0%" stop-color="#6B195F"/><stop offset="100%" stop-color="#4C255B"/></linearGradient></defs><path fill="url(#fa)" d="M61.857 7.068A3.535 3.535 0 0 0 61.86 0a3.534 3.534 0 1 0-.003 7.067v.001zm-27.07 1.906c-.16.4-1.308 3.643-4.084 7.004V1.608l-7.397 1.463v26.047h7.397v-8.051c2.143 3.214 3.2 8.051 3.2 8.051h8.86c-.877-3.643-4.71-10.362-4.71-10.362 3.44-4.363 4.952-9.011 5.192-9.78h-8.46l.001-.002zm19.447-.271c-6.626.212-9.99 3.185-9.99 9.094v11.32h7.23v-9.231c0-3.539.462-5.056 4.662-5.2v-5.88c-.707-.15-1.903-.103-1.903-.103h.001zm-43.335 3.14c-.906-.06-3.004-.196-3.004-2.084 0-2.28 3.02-2.28 4.153-2.28 1.992 0 4.571.59 6.413 1.14 0 0 1.029.363 1.903.734l.08.022v-6.24l-.11-.034c-2.175-.76-4.703-1.491-9.39-1.491C2.864 1.609 0 6.317 0 10.35c0 2.324.997 7.795 10.251 8.427.785.048 2.867.168 2.867 2.12 0 1.61-1.704 2.56-4.571 2.56-3.143 0-6.19-.801-8.042-1.56v6.427c2.772.726 5.895 1.09 9.557 1.09 7.901 0 11.44-4.454 11.44-8.87 0-5.005-3.96-8.257-10.603-8.702v.001zm47.375 17.274h7.17V8.997h-7.17v20.121-.001zm20.67-26.225v26.225h7.172V1.61l-7.171 1.283v-.001zm-10.463 0 7.164-1.283v27.509h-7.164V2.892z"/></svg><view id="icon-footer__visa" viewBox="0 60 57 35"/><svg width="57" height="35" viewBox="0 0 57 35" y="60" xmlns="http://www.w3.org/2000/svg"><g fill="none"><path fill="#FFF" d="M0 0h56.748v35H0z"/><path fill="#1A1F71" d="M0 0h56.748v5.223H0z"/><path fill="#F7B600" d="M0 29.777h56.748V35H0z"/><path fill="#1A1F71" d="M28.355 15.017c-.024 1.89 1.685 2.945 2.971 3.572 1.323.643 1.767 1.056 1.762 1.63-.01.882-1.055 1.27-2.033 1.285-1.706.027-2.697-.46-3.486-.829l-.614 2.876c.79.364 2.256.682 3.775.696 3.565 0 5.898-1.76 5.91-4.489.014-3.463-4.79-3.655-4.757-5.203.011-.47.46-.97 1.44-1.098.486-.064 1.828-.113 3.348.587l.597-2.782a9.098 9.098 0 0 0-3.177-.583c-3.356 0-5.717 1.784-5.736 4.338m14.647-4.133c-.651 0-1.2.38-1.445.962l-5.093 12.161h3.563l.709-1.959h4.354l.411 1.96h3.14l-2.74-13.124h-2.9m.5 4.65 1.027 4.928h-2.816l1.788-4.928m-19.465-4.65-2.808 13.123h3.395l2.807-13.123h-3.394m-5.022 0-3.534 8.932-1.43-7.595c-.167-.848-.83-1.337-1.565-1.337H6.707l-.081.38c1.186.258 2.533.673 3.35 1.117.5.272.642.509.806 1.153l2.707 10.473h3.588l5.501-13.123h-3.565"/></g></svg><view id="icon-footer__webmoney" viewBox="147 60 36 35"/><svg width="36" height="35" viewBox="0 0 36 35" x="147" y="60" xmlns="http://www.w3.org/2000/svg"><path fill="#FFF" d="M17.774.007c2.772 0 5.409.635 7.775 1.77.371.168.745.369 1.115.57L25.04 3.783l-2.432-2.507-4.192 3.676-2.468-2.64-7.708 6.85 4.935 5.38-1.926 1.671 4.868 5.38-1.927 1.67 6.964 7.653 4.122-3.743 3.585 4.011a20.07 20.07 0 0 1-2.332 1.538 17.825 17.825 0 0 1-8.722 2.27c-9.77 0-17.713-7.851-17.713-17.508C.061 7.894 8.005.007 17.774.007zm-3.246 16.408 4.226-3.743 3.787 4.177-4.227 3.743-3.786-4.177zm3.01 7.218 4.19-3.776 3.821 4.177-4.226 3.743-3.785-4.144zM11.522 9.297l4.224-3.743 3.786 4.177-4.226 3.743-3.784-4.177zm7.739-2.005 3.144-2.807 2.84 3.108-3.144 2.84-2.84-3.141zm5.612 12.865 3.143-2.807 2.84 3.14-3.144 2.81-2.839-3.143zm2.772 6.317 3.144-2.808 2.838 3.108-3.143 2.84-2.84-3.14zm1.284-14.437 2.096-1.872 1.892 2.073-2.095 1.87-1.893-2.071zm-2.704-6.182 2.096-1.905 1.894 2.105-2.098 1.872-1.892-2.072zM31.6 18.22l2.095-1.872 1.927 2.072-2.129 1.871L31.6 18.22zm-9.431-4.645 3.144-2.808 2.839 3.108-3.143 2.807-2.84-3.107z"/></svg></svg>