<svg data-v-60abdccc="" xmlns="http://www.w3.org/2000/svg" width="26" height="26" viewBox="0 0 173 127" class="header-nav__icon svg-sprite-icon icon-header-nav__promo"><g data-v-60abdccc="" fill-rule="evenodd"><path data-v-60abdccc="" fill-rule="nonzero" d="M42.6 126.3c-.41-4.95-.47-10.07-1.31-15.07C38.34 93.61 28.78 79.3 17.7 65.87c-3.62-4.38-6.37-9.49-13-10.94-4.33-.94-5.89-6.87-3.78-11s5.89-5.83 10.5-4.54a8.34 8.34 0 015.64 10.33 32.52 32.52 0 01-1.36 3.3c7.5 2.2 14.7 4.44 22 6.33 1.16.3 3.53-.53 3.94-1.46 2-4.44 3.51-9.1 5.13-13.52-7.26-5.34-8.82-9.49-5.71-14.27a8.89 8.89 0 0111.59-2.81c4.73 2.67 5.35 7.44 1.65 14.79l12.37 7.39 15.84-31.88c-6.09-6-7.09-11.43-2.89-15.47 3.13-3 9.44-2.78 12.39.46 3.86 4.25 2.9 9-3.14 14.78l15 29.21 11.33-6.85c-3.11-8.91-2-13.51 3.5-15.47a8.69 8.69 0 0110.93 4.66c2.13 5.11 0 9.14-7.25 12.65l5.81 16.45 14.12-5.23 13.32-4.9c0-1.8-.12-3.49 0-5.16.38-4.58 4.46-8.28 8.76-8.07a9.38 9.38 0 018.46 8.54c.14 4.52-3.39 8.9-8 8.57-3.43-.24-4.58 1.38-6 3.7-12.38 20.79-22 42.44-21.38 67.36.07 2.81-.84 4.16-3.9 4.15-29.66-.067-59.327-.1-89-.1a9.27 9.27 0 01-1.97-.57zm111.8-72.76c-13.56 5-26 9.35-38.18 14.18-4.31 1.72-6.47 1.52-8.71-3.11-6.82-14.12-14.23-28-21.78-42.62-6.65 13.47-13 26.2-19.22 38.95-5.18 10.56-5.13 10.5-16.63 7.08-10.07-3-20.18-5.82-31.54-9.09 1.46 1.86 2 2.6 2.6 3.31 10.44 12.45 19.71 25.68 23.56 41.71 1.24 5.14 3.37 6 8 5.94 16.92-.23 33.84-.08 50.76-.07h29.92c2.7-20.19 10.46-38.13 21.22-56.28zm-22 61.26H46.78l.64 7.21h85l-.02-7.21zM45.88 61.16c11.38 6.11 14.75 4.68 18.1-7.63l-12.61-7.37c-1.88 5.16-3.69 10.08-5.49 15zm77.9-1.46c-2.16-5.64-4.08-10.63-6-15.79l-11.61 7.12 6.5 12.68 11.11-4.01zm-75.2-30.24c-1.87 2.4-3.78 3.81-3.88 5.34-.08 1.18 2.35 3.68 3.26 3.51a5.87 5.87 0 003.86-3.58c.3-1.08-1.6-2.76-3.24-5.27zm-35 18.27c-1.94-1.8-3.44-4.08-4.37-3.86-1.58.37-2.8 2.29-4.17 3.56 1.29 1.34 2.39 3.32 3.94 3.77.96.28 2.59-1.84 4.63-3.47h-.03zm72.24-34.39c1.63-2.05 3.82-3.74 3.54-4.7-.46-1.55-2.55-2.62-3.95-3.88-1.21 1.41-3.14 2.71-3.4 4.29-.14 1.02 2.11 2.49 3.84 4.29h-.03zm35.66 13.8c-1.62 2.4-3.39 3.86-3.24 5.08.17 1.41 2.05 2.61 3.18 3.9 1.28-1.35 3.2-2.53 3.6-4.1.28-.99-1.74-2.56-3.51-4.88h-.03zm42.5 11c-1.66 2.53-3.34 4-3.33 5.44 0 1.16 2.37 3.44 3.14 3.23a6 6 0 003.8-3.5c.31-.94-1.69-2.56-3.58-5.13l-.03-.04z" fill='#fff'></path> <path data-v-60abdccc="" fill-rule="nonzero" d="M87.36 104.04a20 20 0 01-20.42-19.85c-.047-11.233 9.022-20.378 20.255-20.425 11.233-.047 20.378 9.022 20.425 20.255a20 20 0 01-20.26 20.02zm15.17-20.14a15.27 15.27 0 00-15.6-15.25c-8.16.26-15.21 7.34-15.29 15.35-.08 8.21 7.32 15.51 15.67 15.46a15 15 0 0015.22-15.56z" fill='#fff'></path> <path data-v-60abdccc="" d="M74.78 83.76c.12-6.67 5.64-12.22 11.15-12.06 1.18 0 2.33 1.32 3.48 2-.81.89-1.54 2.42-2.47 2.56-4.56.69-7.14 3-7.76 7.66-.12.89-1.75 1.58-2.69 2.36l-1.71-2.52z" fill='#fff'></path></g></svg>