<svg data-v-60abdccc="" xmlns="http://www.w3.org/2000/svg" width="25" height="27" viewBox="0 0 25 27" class="header-nav__icon svg-sprite-icon icon-header__search"><path data-v-60abdccc="" fill-rule="evenodd" clip-rule="evenodd" d="M17.3906 3.86284C13.4121 -0.155452 6.9622 -0.155452 2.98369 3.86284C-0.994818 7.88113 -0.994818 14.3956 2.98369 18.4139C6.9622 22.4321 13.4121 22.4321 17.3906 18.4139C21.3691 14.3956 21.3691 7.88086 17.3906 3.86284ZM16.2532 17.2651C12.9029 20.6487 7.4713 20.6487 4.12099 17.2651C0.77095 13.8811 0.77095 8.39542 4.12099 5.01161C7.47103 1.6278 12.9029 1.62807 16.2532 5.01161C19.6032 8.39515 19.6032 13.8813 16.2532 17.2651Z" fill="white"></path> <path data-v-60abdccc="" fill-rule="evenodd" clip-rule="evenodd" d="M19.2871 18.0305L17.0094 20.3251L22.676 26.0673L24.9537 23.7727L19.2871 18.0305Z" fill="white"></path></svg>